# xmcd
#
# Track frame offsets:
#	182
#	22445
#	39447
#	61375
#	77960
#	95410
#	113855
#	139790
#	156805
#	176592
#	191612
#	203675
#	225897
#	251945
#	276512
#	296490
#
# Disc length: 4225 seconds
#
# Revision: 1
# Processed by: cddbd v1.4b42PL1 Copyright (c) Steve Scherf et al.
# Submitted via: audiograbber 1.80.04
#
DISCID=e9107f10
DTITLE=Barry White and Friends - Cool Songs
DYEAR=1900
DGENRE=
TTITLE0=LOVE MAKIN' MUSIC
TTITLE1=RELAX TO THE MAX
TTITLE2=THE BETTER LOVE IS - THE WORSE IT IS
TTITLE3=YOU
TTITLE4=WE CAN'T LET GO OF LOVE
TTITLE5=GOTTA BE WHERE YOU ARE
TTITLE6=AMERICA
TTITLE7=LET ME IN AND LET'S BEGIN WITH LOVE
TTITLE8=YOUR LOVE, YOUR LOVE
TTITLE9=OUR THEME, PART I
TTITLE10=OUR THEME, PART II
TTITLE11=BAYOU
TTITLE12=DON'T FORGET ...REMEMBER
TTITLE13=IF YOU WANT ME, SAY IT
TTITLE14=I'M GIVIN' YOU A LOVE
TTITLE15=YOU'RE THE FIRST, THE LAST, MY EVERYTHING
EXTD=
EXTT0=
EXTT1=
EXTT2=
EXTT3=
EXTT4=
EXTT5=
EXTT6=
EXTT7=
EXTT8=
EXTT9=
EXTT10=
EXTT11=
EXTT12=
EXTT13=
EXTT14=
EXTT15=
PLAYORDER=
